<mxfile host="65bd71144e">
    <diagram id="ZtLiRM1L5faxFv3i85V5" name="Page-1">
        <mxGraphModel dx="862" dy="561" grid="1" gridSize="10" guides="1" tooltips="1" connect="1" arrows="1" fold="1" page="1" pageScale="1" pageWidth="827" pageHeight="1169" math="0" shadow="0">
            <root>
                <mxCell id="0"/>
                <mxCell id="1" parent="0"/>
                <mxCell id="2" value="&lt;h3&gt;&lt;font style=&quot;font-size: 21px&quot;&gt;Mux2_1&lt;/font&gt;&lt;/h3&gt;" style="rounded=1;whiteSpace=wrap;html=1;" parent="1" vertex="1">
                    <mxGeometry x="320" y="160" width="110" height="70" as="geometry"/>
                </mxCell>
                <mxCell id="3" value="" style="endArrow=classic;html=1;fontSize=21;" parent="1" edge="1">
                    <mxGeometry width="50" height="50" relative="1" as="geometry">
                        <mxPoint x="250" y="180" as="sourcePoint"/>
                        <mxPoint x="320" y="180" as="targetPoint"/>
                    </mxGeometry>
                </mxCell>
                <mxCell id="10" value="in_1" style="edgeLabel;html=1;align=center;verticalAlign=middle;resizable=0;points=[];fontSize=8;" parent="3" vertex="1" connectable="0">
                    <mxGeometry x="-0.1244" relative="1" as="geometry">
                        <mxPoint x="-8" y="-10" as="offset"/>
                    </mxGeometry>
                </mxCell>
                <mxCell id="4" value="" style="endArrow=classic;html=1;fontSize=21;" parent="1" edge="1">
                    <mxGeometry width="50" height="50" relative="1" as="geometry">
                        <mxPoint x="250" y="200" as="sourcePoint"/>
                        <mxPoint x="320" y="200" as="targetPoint"/>
                    </mxGeometry>
                </mxCell>
                <mxCell id="11" value="in_2" style="edgeLabel;html=1;align=center;verticalAlign=middle;resizable=0;points=[];fontSize=8;" parent="4" vertex="1" connectable="0">
                    <mxGeometry x="-0.3542" y="1" relative="1" as="geometry">
                        <mxPoint y="-5" as="offset"/>
                    </mxGeometry>
                </mxCell>
                <mxCell id="5" value="" style="endArrow=classic;html=1;fontSize=21;" parent="1" edge="1">
                    <mxGeometry width="50" height="50" relative="1" as="geometry">
                        <mxPoint x="430" y="200" as="sourcePoint"/>
                        <mxPoint x="500" y="200" as="targetPoint"/>
                    </mxGeometry>
                </mxCell>
                <mxCell id="13" value="out" style="edgeLabel;html=1;align=center;verticalAlign=middle;resizable=0;points=[];fontSize=8;" parent="5" vertex="1" connectable="0">
                    <mxGeometry x="-0.1638" relative="1" as="geometry">
                        <mxPoint x="2" y="-6" as="offset"/>
                    </mxGeometry>
                </mxCell>
                <mxCell id="6" value="" style="endArrow=classic;html=1;fontSize=21;" parent="1" edge="1">
                    <mxGeometry width="50" height="50" relative="1" as="geometry">
                        <mxPoint x="250" y="220" as="sourcePoint"/>
                        <mxPoint x="320" y="220" as="targetPoint"/>
                    </mxGeometry>
                </mxCell>
                <mxCell id="12" value="sel" style="edgeLabel;html=1;align=center;verticalAlign=middle;resizable=0;points=[];fontSize=8;" parent="6" vertex="1" connectable="0">
                    <mxGeometry x="-0.328" relative="1" as="geometry">
                        <mxPoint x="-2" y="-6" as="offset"/>
                    </mxGeometry>
                </mxCell>
                <mxCell id="14" value="in_1" style="text;html=1;strokeColor=#82b366;fillColor=#d5e8d4;align=center;verticalAlign=middle;whiteSpace=wrap;rounded=0;fontSize=8;" parent="1" vertex="1">
                    <mxGeometry x="80" y="300" width="80" height="20" as="geometry"/>
                </mxCell>
                <mxCell id="15" value="" style="pointerEvents=1;verticalLabelPosition=bottom;shadow=0;dashed=0;align=center;html=1;verticalAlign=top;shape=mxgraph.electrical.waveforms.step_1;" vertex="1" parent="1">
                    <mxGeometry x="190" y="297" width="55" height="23" as="geometry"/>
                </mxCell>
                <mxCell id="16" value="" style="pointerEvents=1;verticalLabelPosition=bottom;shadow=0;dashed=0;align=center;html=1;verticalAlign=top;shape=mxgraph.electrical.waveforms.step_2;" vertex="1" parent="1">
                    <mxGeometry x="245" y="297" width="75" height="23" as="geometry"/>
                </mxCell>
                <mxCell id="17" value="" style="endArrow=none;html=1;exitX=0.995;exitY=1.044;exitDx=0;exitDy=0;exitPerimeter=0;" edge="1" parent="1">
                    <mxGeometry width="50" height="50" relative="1" as="geometry">
                        <mxPoint x="319.625" y="320.01200000000006" as="sourcePoint"/>
                        <mxPoint x="380" y="320" as="targetPoint"/>
                    </mxGeometry>
                </mxCell>
                <mxCell id="19" value="" style="pointerEvents=1;verticalLabelPosition=bottom;shadow=0;dashed=0;align=center;html=1;verticalAlign=top;shape=mxgraph.electrical.waveforms.step_1;" vertex="1" parent="1">
                    <mxGeometry x="380" y="297" width="10" height="23" as="geometry"/>
                </mxCell>
                <mxCell id="20" value="" style="pointerEvents=1;verticalLabelPosition=bottom;shadow=0;dashed=0;align=center;html=1;verticalAlign=top;shape=mxgraph.electrical.waveforms.step_2;" vertex="1" parent="1">
                    <mxGeometry x="390" y="297" width="4" height="23" as="geometry"/>
                </mxCell>
                <mxCell id="21" value="" style="endArrow=none;html=1;exitX=0.995;exitY=1.044;exitDx=0;exitDy=0;exitPerimeter=0;" edge="1" parent="1">
                    <mxGeometry width="50" height="50" relative="1" as="geometry">
                        <mxPoint x="393.005" y="320.01200000000006" as="sourcePoint"/>
                        <mxPoint x="453.38" y="320" as="targetPoint"/>
                    </mxGeometry>
                </mxCell>
                <mxCell id="23" value="" style="pointerEvents=1;verticalLabelPosition=bottom;shadow=0;dashed=0;align=center;html=1;verticalAlign=top;shape=mxgraph.electrical.waveforms.step_1;" vertex="1" parent="1">
                    <mxGeometry x="441" y="297" width="30" height="23" as="geometry"/>
                </mxCell>
                <mxCell id="25" value="" style="pointerEvents=1;verticalLabelPosition=bottom;shadow=0;dashed=0;align=center;html=1;verticalAlign=top;shape=mxgraph.electrical.waveforms.step_2;" vertex="1" parent="1">
                    <mxGeometry x="471" y="297" width="4" height="23" as="geometry"/>
                </mxCell>
                <mxCell id="26" value="" style="endArrow=none;html=1;exitX=0.995;exitY=1.044;exitDx=0;exitDy=0;exitPerimeter=0;" edge="1" parent="1">
                    <mxGeometry width="50" height="50" relative="1" as="geometry">
                        <mxPoint x="474.995" y="320.01200000000006" as="sourcePoint"/>
                        <mxPoint x="530" y="320" as="targetPoint"/>
                    </mxGeometry>
                </mxCell>
                <mxCell id="27" value="in_2" style="text;html=1;strokeColor=#82b366;fillColor=#d5e8d4;align=center;verticalAlign=middle;whiteSpace=wrap;rounded=0;fontSize=8;" vertex="1" parent="1">
                    <mxGeometry x="80" y="360" width="80" height="20" as="geometry"/>
                </mxCell>
                <mxCell id="28" value="sel" style="text;html=1;strokeColor=#82b366;fillColor=#d5e8d4;align=center;verticalAlign=middle;whiteSpace=wrap;rounded=0;fontSize=8;" vertex="1" parent="1">
                    <mxGeometry x="80" y="420" width="80" height="20" as="geometry"/>
                </mxCell>
                <mxCell id="29" value="out" style="text;html=1;strokeColor=#82b366;fillColor=#d5e8d4;align=center;verticalAlign=middle;whiteSpace=wrap;rounded=0;fontSize=8;" vertex="1" parent="1">
                    <mxGeometry x="80" y="480" width="80" height="20" as="geometry"/>
                </mxCell>
                <mxCell id="30" value="" style="pointerEvents=1;verticalLabelPosition=bottom;shadow=0;dashed=0;align=center;html=1;verticalAlign=top;shape=mxgraph.electrical.waveforms.pulse_1;" vertex="1" parent="1">
                    <mxGeometry x="250.37" y="359.52" width="30" height="20" as="geometry"/>
                </mxCell>
                <mxCell id="31" value="" style="pointerEvents=1;verticalLabelPosition=bottom;shadow=0;dashed=0;align=center;html=1;verticalAlign=top;shape=mxgraph.electrical.waveforms.pulse_1;" vertex="1" parent="1">
                    <mxGeometry x="280.37" y="359.52" width="90" height="20" as="geometry"/>
                </mxCell>
                <mxCell id="32" value="" style="pointerEvents=1;verticalLabelPosition=bottom;shadow=0;dashed=0;align=center;html=1;verticalAlign=top;shape=mxgraph.electrical.waveforms.pulse_1;" vertex="1" parent="1">
                    <mxGeometry x="370.37" y="359.52" width="90" height="20" as="geometry"/>
                </mxCell>
                <mxCell id="33" value="" style="endArrow=none;html=1;exitX=0.995;exitY=1.044;exitDx=0;exitDy=0;exitPerimeter=0;" edge="1" parent="1">
                    <mxGeometry width="50" height="50" relative="1" as="geometry">
                        <mxPoint x="189.995" y="379.53200000000015" as="sourcePoint"/>
                        <mxPoint x="250.36999999999978" y="379.52" as="targetPoint"/>
                    </mxGeometry>
                </mxCell>
                <mxCell id="34" value="" style="pointerEvents=1;verticalLabelPosition=bottom;shadow=0;dashed=0;align=center;html=1;verticalAlign=top;shape=mxgraph.electrical.waveforms.pulse_1;" vertex="1" parent="1">
                    <mxGeometry x="460.37" y="359.52" width="30" height="20" as="geometry"/>
                </mxCell>
                <mxCell id="35" value="" style="endArrow=none;html=1;exitX=0.995;exitY=1.044;exitDx=0;exitDy=0;exitPerimeter=0;" edge="1" parent="1">
                    <mxGeometry width="50" height="50" relative="1" as="geometry">
                        <mxPoint x="490.3749999999999" y="379.52200000000016" as="sourcePoint"/>
                        <mxPoint x="531.37" y="379.2" as="targetPoint"/>
                        <Array as="points">
                            <mxPoint x="531.37" y="379.51"/>
                        </Array>
                    </mxGeometry>
                </mxCell>
                <mxCell id="36" value="" style="pointerEvents=1;verticalLabelPosition=bottom;shadow=0;dashed=0;align=center;html=1;verticalAlign=top;shape=mxgraph.electrical.waveforms.pulse_1;" vertex="1" parent="1">
                    <mxGeometry x="190.37" y="420" width="29.63" height="20" as="geometry"/>
                </mxCell>
                <mxCell id="37" value="" style="pointerEvents=1;verticalLabelPosition=bottom;shadow=0;dashed=0;align=center;html=1;verticalAlign=top;shape=mxgraph.electrical.waveforms.pulse_1;" vertex="1" parent="1">
                    <mxGeometry x="230" y="420" width="80" height="20" as="geometry"/>
                </mxCell>
                <mxCell id="38" value="" style="pointerEvents=1;verticalLabelPosition=bottom;shadow=0;dashed=0;align=center;html=1;verticalAlign=top;shape=mxgraph.electrical.waveforms.pulse_1;" vertex="1" parent="1">
                    <mxGeometry x="310" y="420" width="80" height="20" as="geometry"/>
                </mxCell>
                <mxCell id="39" value="" style="pointerEvents=1;verticalLabelPosition=bottom;shadow=0;dashed=0;align=center;html=1;verticalAlign=top;shape=mxgraph.electrical.waveforms.pulse_1;" vertex="1" parent="1">
                    <mxGeometry x="390" y="420" width="20" height="20" as="geometry"/>
                </mxCell>
                <mxCell id="40" value="" style="pointerEvents=1;verticalLabelPosition=bottom;shadow=0;dashed=0;align=center;html=1;verticalAlign=top;shape=mxgraph.electrical.waveforms.pulse_1;" vertex="1" parent="1">
                    <mxGeometry x="410" y="420" width="120" height="20" as="geometry"/>
                </mxCell>
                <mxCell id="41" value="" style="endArrow=none;html=1;exitX=0.924;exitY=1;exitDx=0;exitDy=0;exitPerimeter=0;" edge="1" parent="1" source="36">
                    <mxGeometry width="50" height="50" relative="1" as="geometry">
                        <mxPoint x="219.9949999999999" y="439.52200000000016" as="sourcePoint"/>
                        <mxPoint x="240" y="439.99" as="targetPoint"/>
                    </mxGeometry>
                </mxCell>
                <mxCell id="42" value="" style="endArrow=none;dashed=1;html=1;dashPattern=1 3;strokeWidth=2;fillColor=#ffe6cc;strokeColor=#d79b00;" edge="1" parent="1">
                    <mxGeometry width="50" height="50" relative="1" as="geometry">
                        <mxPoint x="198" y="280" as="sourcePoint"/>
                        <mxPoint x="198" y="520" as="targetPoint"/>
                    </mxGeometry>
                </mxCell>
                <mxCell id="44" value="" style="endArrow=none;dashed=1;html=1;dashPattern=1 3;strokeWidth=2;fillColor=#ffe6cc;strokeColor=#d79b00;" edge="1" parent="1">
                    <mxGeometry width="50" height="50" relative="1" as="geometry">
                        <mxPoint x="211.26" y="280" as="sourcePoint"/>
                        <mxPoint x="211.26" y="520" as="targetPoint"/>
                    </mxGeometry>
                </mxCell>
                <mxCell id="45" value="" style="endArrow=none;html=1;" edge="1" parent="1">
                    <mxGeometry width="50" height="50" relative="1" as="geometry">
                        <mxPoint x="191" y="500" as="sourcePoint"/>
                        <mxPoint x="201" y="500" as="targetPoint"/>
                    </mxGeometry>
                </mxCell>
                <mxCell id="46" value="" style="endArrow=none;html=1;" edge="1" parent="1">
                    <mxGeometry width="50" height="50" relative="1" as="geometry">
                        <mxPoint x="200.19" y="500" as="sourcePoint"/>
                        <mxPoint x="210.19" y="500" as="targetPoint"/>
                    </mxGeometry>
                </mxCell>
                <mxCell id="49" value="" style="pointerEvents=1;verticalLabelPosition=bottom;shadow=0;dashed=0;align=center;html=1;verticalAlign=top;shape=mxgraph.electrical.waveforms.step_1;" vertex="1" parent="1">
                    <mxGeometry x="208.5" y="480" width="20.5" height="20" as="geometry"/>
                </mxCell>
                <mxCell id="50" value="" style="endArrow=none;dashed=1;html=1;dashPattern=1 3;strokeWidth=2;fillColor=#ffe6cc;strokeColor=#d79b00;" edge="1" parent="1">
                    <mxGeometry width="50" height="50" relative="1" as="geometry">
                        <mxPoint x="252.37" y="280" as="sourcePoint"/>
                        <mxPoint x="252.37" y="520" as="targetPoint"/>
                    </mxGeometry>
                </mxCell>
                <mxCell id="51" value="" style="pointerEvents=1;verticalLabelPosition=bottom;shadow=0;dashed=0;align=center;html=1;verticalAlign=top;shape=mxgraph.electrical.waveforms.step_2;" vertex="1" parent="1">
                    <mxGeometry x="246" y="480" width="13" height="20" as="geometry"/>
                </mxCell>
                <mxCell id="52" value="" style="pointerEvents=1;verticalLabelPosition=bottom;shadow=0;dashed=0;align=center;html=1;verticalAlign=top;shape=mxgraph.electrical.waveforms.step_1;" vertex="1" parent="1">
                    <mxGeometry x="254" y="480" width="12.5" height="20" as="geometry"/>
                </mxCell>
                <mxCell id="53" value="" style="endArrow=none;dashed=1;html=1;dashPattern=1 3;strokeWidth=2;fillColor=#ffe6cc;strokeColor=#d79b00;" edge="1" parent="1">
                    <mxGeometry width="50" height="50" relative="1" as="geometry">
                        <mxPoint x="287.37" y="278" as="sourcePoint"/>
                        <mxPoint x="287.37" y="518" as="targetPoint"/>
                    </mxGeometry>
                </mxCell>
                <mxCell id="54" value="" style="pointerEvents=1;verticalLabelPosition=bottom;shadow=0;dashed=0;align=center;html=1;verticalAlign=top;shape=mxgraph.electrical.waveforms.step_2;" vertex="1" parent="1">
                    <mxGeometry x="261.5" y="480" width="19.5" height="20" as="geometry"/>
                </mxCell>
                <mxCell id="57" value="" style="endArrow=none;html=1;exitX=0.949;exitY=1;exitDx=0;exitDy=0;exitPerimeter=0;" edge="1" parent="1" source="54">
                    <mxGeometry width="50" height="50" relative="1" as="geometry">
                        <mxPoint x="290" y="500" as="sourcePoint"/>
                        <mxPoint x="330" y="500" as="targetPoint"/>
                    </mxGeometry>
                </mxCell>
                <mxCell id="58" value="" style="endArrow=none;dashed=1;html=1;dashPattern=1 3;strokeWidth=2;fillColor=#ffe6cc;strokeColor=#d79b00;" edge="1" parent="1">
                    <mxGeometry width="50" height="50" relative="1" as="geometry">
                        <mxPoint x="332.0000000000001" y="271" as="sourcePoint"/>
                        <mxPoint x="332.0000000000001" y="511" as="targetPoint"/>
                    </mxGeometry>
                </mxCell>
                <mxCell id="59" value="" style="pointerEvents=1;verticalLabelPosition=bottom;shadow=0;dashed=0;align=center;html=1;verticalAlign=top;shape=mxgraph.electrical.waveforms.step_1;" vertex="1" parent="1">
                    <mxGeometry x="324" y="480" width="16" height="20" as="geometry"/>
                </mxCell>
                <mxCell id="60" value="" style="endArrow=none;dashed=1;html=1;dashPattern=1 3;strokeWidth=2;fillColor=#ffe6cc;strokeColor=#d79b00;" edge="1" parent="1">
                    <mxGeometry width="50" height="50" relative="1" as="geometry">
                        <mxPoint x="367.8" y="270" as="sourcePoint"/>
                        <mxPoint x="367.8" y="510" as="targetPoint"/>
                    </mxGeometry>
                </mxCell>
                <mxCell id="61" value="" style="pointerEvents=1;verticalLabelPosition=bottom;shadow=0;dashed=0;align=center;html=1;verticalAlign=top;shape=mxgraph.electrical.waveforms.step_2;" vertex="1" parent="1">
                    <mxGeometry x="339" y="480" width="13" height="20" as="geometry"/>
                </mxCell>
                <mxCell id="62" value="" style="endArrow=none;dashed=1;html=1;dashPattern=1 3;strokeWidth=2;fillColor=#ffe6cc;strokeColor=#d79b00;" edge="1" parent="1">
                    <mxGeometry width="50" height="50" relative="1" as="geometry">
                        <mxPoint x="345.2099999999999" y="270" as="sourcePoint"/>
                        <mxPoint x="345.2099999999999" y="510" as="targetPoint"/>
                    </mxGeometry>
                </mxCell>
                <mxCell id="63" value="" style="endArrow=none;html=1;exitX=1.005;exitY=1.002;exitDx=0;exitDy=0;exitPerimeter=0;" edge="1" parent="1">
                    <mxGeometry width="50" height="50" relative="1" as="geometry">
                        <mxPoint x="351.995" y="499.99999999999994" as="sourcePoint"/>
                        <mxPoint x="384.93" y="499.87" as="targetPoint"/>
                    </mxGeometry>
                </mxCell>
                <mxCell id="64" value="" style="endArrow=none;dashed=1;html=1;dashPattern=1 3;strokeWidth=2;fillColor=#ffe6cc;strokeColor=#d79b00;startArrow=none;" edge="1" parent="1" source="67">
                    <mxGeometry width="50" height="50" relative="1" as="geometry">
                        <mxPoint x="384.85999999999996" y="270" as="sourcePoint"/>
                        <mxPoint x="384.85999999999996" y="510" as="targetPoint"/>
                    </mxGeometry>
                </mxCell>
                <mxCell id="65" value="" style="endArrow=none;dashed=1;html=1;dashPattern=1 3;strokeWidth=2;fillColor=#ffe6cc;strokeColor=#d79b00;" edge="1" parent="1">
                    <mxGeometry width="50" height="50" relative="1" as="geometry">
                        <mxPoint x="395.9999999999999" y="269" as="sourcePoint"/>
                        <mxPoint x="395.9999999999999" y="509" as="targetPoint"/>
                        <Array as="points">
                            <mxPoint x="396.14" y="379"/>
                        </Array>
                    </mxGeometry>
                </mxCell>
                <mxCell id="66" value="" style="pointerEvents=1;verticalLabelPosition=bottom;shadow=0;dashed=0;align=center;html=1;verticalAlign=top;shape=mxgraph.electrical.waveforms.step_2;" vertex="1" parent="1">
                    <mxGeometry x="388.75" y="480" width="6.5" height="20" as="geometry"/>
                </mxCell>
                <mxCell id="67" value="" style="pointerEvents=1;verticalLabelPosition=bottom;shadow=0;dashed=0;align=center;html=1;verticalAlign=top;shape=mxgraph.electrical.waveforms.step_1;" vertex="1" parent="1">
                    <mxGeometry x="380" y="480" width="10" height="20" as="geometry"/>
                </mxCell>
                <mxCell id="68" value="" style="endArrow=none;dashed=1;html=1;dashPattern=1 3;strokeWidth=2;fillColor=#ffe6cc;strokeColor=#d79b00;" edge="1" parent="1" target="67">
                    <mxGeometry width="50" height="50" relative="1" as="geometry">
                        <mxPoint x="384.8599999999999" y="270" as="sourcePoint"/>
                        <mxPoint x="384.8599999999999" y="510" as="targetPoint"/>
                    </mxGeometry>
                </mxCell>
                <mxCell id="69" value="" style="pointerEvents=1;verticalLabelPosition=bottom;shadow=0;dashed=0;align=center;html=1;verticalAlign=top;shape=mxgraph.electrical.waveforms.step_1;" vertex="1" parent="1">
                    <mxGeometry x="392" y="480" width="6" height="20" as="geometry"/>
                </mxCell>
                <mxCell id="71" value="" style="endArrow=none;dashed=1;html=1;dashPattern=1 3;strokeWidth=2;fillColor=#ffe6cc;strokeColor=#d79b00;" edge="1" parent="1">
                    <mxGeometry width="50" height="50" relative="1" as="geometry">
                        <mxPoint x="404.6" y="271" as="sourcePoint"/>
                        <mxPoint x="404.6" y="511" as="targetPoint"/>
                        <Array as="points">
                            <mxPoint x="404.74" y="381"/>
                        </Array>
                    </mxGeometry>
                </mxCell>
                <mxCell id="72" value="" style="pointerEvents=1;verticalLabelPosition=bottom;shadow=0;dashed=0;align=center;html=1;verticalAlign=top;shape=mxgraph.electrical.waveforms.step_2;" vertex="1" parent="1">
                    <mxGeometry x="398" y="480" width="12" height="20" as="geometry"/>
                </mxCell>
                <mxCell id="74" value="" style="endArrow=none;dashed=1;html=1;dashPattern=1 3;strokeWidth=2;fillColor=#ffe6cc;strokeColor=#d79b00;" edge="1" parent="1">
                    <mxGeometry width="50" height="50" relative="1" as="geometry">
                        <mxPoint x="443" y="281" as="sourcePoint"/>
                        <mxPoint x="443" y="521" as="targetPoint"/>
                        <Array as="points">
                            <mxPoint x="443.14" y="391"/>
                        </Array>
                    </mxGeometry>
                </mxCell>
                <mxCell id="75" value="" style="endArrow=none;html=1;" edge="1" parent="1">
                    <mxGeometry width="50" height="50" relative="1" as="geometry">
                        <mxPoint x="410" y="500" as="sourcePoint"/>
                        <mxPoint x="470" y="500" as="targetPoint"/>
                    </mxGeometry>
                </mxCell>
                <mxCell id="76" value="" style="endArrow=none;dashed=1;html=1;dashPattern=1 3;strokeWidth=2;fillColor=#ffe6cc;strokeColor=#d79b00;" edge="1" parent="1">
                    <mxGeometry width="50" height="50" relative="1" as="geometry">
                        <mxPoint x="468.83" y="269" as="sourcePoint"/>
                        <mxPoint x="468.83" y="509" as="targetPoint"/>
                        <Array as="points">
                            <mxPoint x="468.96999999999997" y="379"/>
                        </Array>
                    </mxGeometry>
                </mxCell>
                <mxCell id="77" value="" style="pointerEvents=1;verticalLabelPosition=bottom;shadow=0;dashed=0;align=center;html=1;verticalAlign=top;shape=mxgraph.electrical.waveforms.step_1;" vertex="1" parent="1">
                    <mxGeometry x="461.37" y="480" width="16" height="20" as="geometry"/>
                </mxCell>
                <mxCell id="80" value="" style="pointerEvents=1;verticalLabelPosition=bottom;shadow=0;dashed=0;align=center;html=1;verticalAlign=top;shape=mxgraph.electrical.waveforms.step_2;" vertex="1" parent="1">
                    <mxGeometry x="475.37" y="480" width="12" height="20" as="geometry"/>
                </mxCell>
                <mxCell id="81" value="" style="endArrow=none;dashed=1;html=1;dashPattern=1 3;strokeWidth=2;fillColor=#ffe6cc;strokeColor=#d79b00;" edge="1" parent="1">
                    <mxGeometry width="50" height="50" relative="1" as="geometry">
                        <mxPoint x="481.8299999999999" y="278" as="sourcePoint"/>
                        <mxPoint x="481.8299999999999" y="518" as="targetPoint"/>
                        <Array as="points">
                            <mxPoint x="481.96999999999997" y="388"/>
                        </Array>
                    </mxGeometry>
                </mxCell>
                <mxCell id="82" value="" style="endArrow=none;html=1;" edge="1" parent="1">
                    <mxGeometry width="50" height="50" relative="1" as="geometry">
                        <mxPoint x="487.37" y="500" as="sourcePoint"/>
                        <mxPoint x="530" y="500" as="targetPoint"/>
                    </mxGeometry>
                </mxCell>
                <mxCell id="83" value="" style="endArrow=none;dashed=1;html=1;dashPattern=1 3;strokeWidth=2;fillColor=#ffe6cc;strokeColor=#d79b00;" edge="1" parent="1">
                    <mxGeometry width="50" height="50" relative="1" as="geometry">
                        <mxPoint x="495.99999999999994" y="272" as="sourcePoint"/>
                        <mxPoint x="495.99999999999994" y="512" as="targetPoint"/>
                        <Array as="points">
                            <mxPoint x="496.14" y="382"/>
                        </Array>
                    </mxGeometry>
                </mxCell>
                <mxCell id="84" value="" style="endArrow=none;dashed=1;html=1;dashPattern=1 3;strokeWidth=2;fillColor=#ffe6cc;strokeColor=#d79b00;" edge="1" parent="1">
                    <mxGeometry width="50" height="50" relative="1" as="geometry">
                        <mxPoint x="259.3799999999999" y="279" as="sourcePoint"/>
                        <mxPoint x="259.3799999999999" y="519" as="targetPoint"/>
                        <Array as="points">
                            <mxPoint x="259.01" y="389"/>
                        </Array>
                    </mxGeometry>
                </mxCell>
                <mxCell id="85" value="" style="endArrow=none;dashed=1;html=1;dashPattern=1 3;strokeWidth=2;fillColor=#ffe6cc;strokeColor=#d79b00;" edge="1" parent="1">
                    <mxGeometry width="50" height="50" relative="1" as="geometry">
                        <mxPoint x="218.26" y="280" as="sourcePoint"/>
                        <mxPoint x="218.26" y="520" as="targetPoint"/>
                    </mxGeometry>
                </mxCell>
                <mxCell id="86" value="" style="endArrow=none;html=1;" edge="1" parent="1">
                    <mxGeometry width="50" height="50" relative="1" as="geometry">
                        <mxPoint x="229" y="480" as="sourcePoint"/>
                        <mxPoint x="248" y="480" as="targetPoint"/>
                    </mxGeometry>
                </mxCell>
                <mxCell id="87" value="" style="endArrow=none;dashed=1;html=1;dashPattern=1 3;strokeWidth=2;fillColor=#ffe6cc;strokeColor=#d79b00;" edge="1" parent="1">
                    <mxGeometry width="50" height="50" relative="1" as="geometry">
                        <mxPoint x="271.70999999999987" y="279" as="sourcePoint"/>
                        <mxPoint x="271.70999999999987" y="519" as="targetPoint"/>
                    </mxGeometry>
                </mxCell>
                <mxCell id="88" value="" style="endArrow=none;dashed=1;html=1;dashPattern=1 3;strokeWidth=2;fillColor=#ffe6cc;strokeColor=#d79b00;" edge="1" parent="1">
                    <mxGeometry width="50" height="50" relative="1" as="geometry">
                        <mxPoint x="305.66" y="279" as="sourcePoint"/>
                        <mxPoint x="305.66" y="519.0000000000001" as="targetPoint"/>
                    </mxGeometry>
                </mxCell>
                <mxCell id="89" value="" style="endArrow=none;dashed=1;html=1;dashPattern=1 3;strokeWidth=2;fillColor=#ffe6cc;strokeColor=#d79b00;" edge="1" parent="1">
                    <mxGeometry width="50" height="50" relative="1" as="geometry">
                        <mxPoint x="391.9999999999999" y="269" as="sourcePoint"/>
                        <mxPoint x="391.9999999999999" y="509" as="targetPoint"/>
                        <Array as="points">
                            <mxPoint x="392.14" y="379"/>
                        </Array>
                    </mxGeometry>
                </mxCell>
            </root>
        </mxGraphModel>
    </diagram>
</mxfile>